<svg width="289" height="219" viewBox="0 0 289 219" fill="none" xmlns="http://www.w3.org/2000/svg">
<g clip-path="url(#clip0)">
<path d="M139.821 193.626C77.6177 188.901 3.43701 140.793 7.21366 91.2578C10.9903 41.7226 82.8351 -4.39063 145.039 0.33427C207.242 5.05917 243.049 97.6323 239.272 147.168C235.495 196.703 202.025 198.351 139.821 193.626Z" fill="#F2F2F2"/>
<path d="M145.038 201.582C216.751 201.582 274.886 198.027 274.886 193.642C274.886 189.257 216.751 185.702 145.038 185.702C73.325 185.702 15.1901 189.257 15.1901 193.642C15.1901 198.027 73.325 201.582 145.038 201.582Z" fill="#3F3D56"/>
<path opacity="0.1" d="M145.038 198.765C206.122 198.765 255.64 196.414 255.64 193.514C255.64 190.614 206.122 188.263 145.038 188.263C83.9544 188.263 34.4363 190.614 34.4363 193.514C34.4363 196.414 83.9544 198.765 145.038 198.765Z" fill="black"/>
<path d="M243.322 41.4948H50.3465V192.618H243.322V41.4948Z" fill="#3F3D56"/>
<path d="M144.639 62.1472H97.032C96.956 62.1473 96.8807 62.1325 96.8105 62.1036C96.7403 62.0747 96.6764 62.0322 96.6227 61.9787C96.5689 61.9251 96.5262 61.8615 96.4971 61.7914C96.468 61.7214 96.453 61.6463 96.453 61.5705C96.453 61.4946 96.468 61.4195 96.4971 61.3495C96.5262 61.2795 96.5689 61.2158 96.6227 61.1623C96.6764 61.1087 96.7403 61.0662 96.8105 61.0373C96.8807 61.0084 96.956 60.9936 97.032 60.9938H144.639C144.792 60.9941 144.939 61.055 145.047 61.1631C145.155 61.2712 145.215 61.4177 145.215 61.5705C145.215 61.7232 145.155 61.8697 145.047 61.9778C144.939 62.0859 144.792 62.1468 144.639 62.1472Z" fill="#F2F2F2"/>
<path d="M196.752 68.4905H121.875C121.722 68.4905 121.575 68.4298 121.467 68.3216C121.359 68.2135 121.298 68.0668 121.298 67.9138C121.298 67.7609 121.359 67.6142 121.467 67.5061C121.575 67.3979 121.722 67.3372 121.875 67.3372H196.752C196.828 67.3372 196.903 67.3521 196.973 67.3811C197.044 67.41 197.107 67.4525 197.161 67.5061C197.215 67.5596 197.257 67.6232 197.286 67.6931C197.315 67.7631 197.33 67.8381 197.33 67.9138C197.33 67.9896 197.315 68.0646 197.286 68.1345C197.257 68.2045 197.215 68.2681 197.161 68.3216C197.107 68.3752 197.044 68.4176 196.973 68.4466C196.903 68.4756 196.828 68.4905 196.752 68.4905Z" fill="#F2F2F2"/>
<path d="M144.87 74.8341H97.2631C97.1099 74.8341 96.9629 74.7734 96.8546 74.6652C96.7462 74.5571 96.6853 74.4104 96.6853 74.2575C96.6853 74.1045 96.7462 73.9578 96.8546 73.8497C96.9629 73.7415 97.1099 73.6808 97.2631 73.6808H144.87C145.023 73.6808 145.17 73.7415 145.279 73.8497C145.387 73.9578 145.448 74.1045 145.448 74.2575C145.448 74.4104 145.387 74.5571 145.279 74.6652C145.17 74.7734 145.023 74.8341 144.87 74.8341Z" fill="#F2F2F2"/>
<path d="M196.752 74.9495H149.145C148.992 74.9495 148.845 74.8887 148.737 74.7806C148.628 74.6724 148.568 74.5258 148.568 74.3728C148.568 74.2199 148.628 74.0732 148.737 73.965C148.845 73.8569 148.992 73.7961 149.145 73.7961H196.752C196.906 73.7961 197.053 73.8569 197.161 73.965C197.269 74.0732 197.33 74.2199 197.33 74.3728C197.33 74.5258 197.269 74.6724 197.161 74.7806C197.053 74.8887 196.906 74.9495 196.752 74.9495Z" fill="#F2F2F2"/>
<path d="M144.986 81.1775H97.3786C97.2254 81.1775 97.0784 81.1168 96.9701 81.0086C96.8617 80.9005 96.8009 80.7538 96.8009 80.6009C96.8009 80.4479 96.8617 80.3012 96.9701 80.1931C97.0784 80.0849 97.2254 80.0242 97.3786 80.0242H144.986C145.139 80.0242 145.286 80.0849 145.394 80.1931C145.502 80.3012 145.563 80.4479 145.563 80.6009C145.563 80.7538 145.502 80.9005 145.394 81.0086C145.286 81.1168 145.139 81.1775 144.986 81.1775Z" fill="#F2F2F2"/>
<path d="M145.101 87.521H97.4942C97.341 87.521 97.194 87.4603 97.0857 87.3521C96.9773 87.244 96.9164 87.0973 96.9164 86.9444C96.9164 86.7914 96.9773 86.6447 97.0857 86.5366C97.194 86.4284 97.341 86.3677 97.4942 86.3677H145.101C145.254 86.3677 145.401 86.4284 145.51 86.5366C145.618 86.6447 145.679 86.7914 145.679 86.9444C145.679 87.0973 145.618 87.244 145.51 87.3521C145.401 87.4603 145.254 87.521 145.101 87.521Z" fill="#F2F2F2"/>
<path d="M166.709 62.2624H153.074C152.921 62.2624 152.774 62.2016 152.666 62.0935C152.557 61.9853 152.496 61.8386 152.496 61.6857C152.496 61.5328 152.557 61.3861 152.666 61.2779C152.774 61.1698 152.921 61.109 153.074 61.109H166.709C166.862 61.109 167.009 61.1698 167.118 61.2779C167.226 61.3861 167.287 61.5328 167.287 61.6857C167.287 61.8386 167.226 61.9853 167.118 62.0935C167.009 62.2016 166.862 62.2624 166.709 62.2624Z" fill="#F2F2F2"/>
<path d="M166.709 81.1775H153.074C152.921 81.1775 152.774 81.1168 152.666 81.0086C152.557 80.9005 152.496 80.7538 152.496 80.6009C152.496 80.4479 152.557 80.3012 152.666 80.1931C152.774 80.0849 152.921 80.0242 153.074 80.0242H166.709C166.862 80.0242 167.009 80.0849 167.118 80.1931C167.226 80.3012 167.287 80.4479 167.287 80.6009C167.287 80.7538 167.226 80.9005 167.118 81.0086C167.009 81.1168 166.862 81.1775 166.709 81.1775Z" fill="#F2F2F2"/>
<path d="M166.709 87.4058H153.074C152.998 87.406 152.923 87.3912 152.853 87.3623C152.782 87.3333 152.719 87.2909 152.665 87.2373C152.611 87.1838 152.568 87.1201 152.539 87.0501C152.51 86.98 152.495 86.905 152.495 86.8291C152.495 86.7533 152.51 86.6782 152.539 86.6082C152.568 86.5381 152.611 86.4745 152.665 86.4209C152.719 86.3674 152.782 86.3249 152.853 86.296C152.923 86.2671 152.998 86.2523 153.074 86.2524H166.709C166.785 86.2523 166.86 86.2671 166.931 86.296C167.001 86.3249 167.065 86.3674 167.118 86.4209C167.172 86.4745 167.215 86.5381 167.244 86.6082C167.273 86.6782 167.288 86.7533 167.288 86.8291C167.288 86.905 167.273 86.98 167.244 87.0501C167.215 87.1201 167.172 87.1838 167.118 87.2373C167.065 87.2909 167.001 87.3333 166.931 87.3623C166.86 87.3912 166.785 87.406 166.709 87.4058Z" fill="#F2F2F2"/>
<path d="M189.588 87.4058H175.953C175.8 87.4055 175.654 87.3446 175.545 87.2365C175.437 87.1284 175.377 86.9819 175.377 86.8291C175.377 86.6764 175.437 86.5299 175.545 86.4218C175.654 86.3137 175.8 86.2528 175.953 86.2524H189.588C189.664 86.2523 189.739 86.2671 189.81 86.296C189.88 86.3249 189.944 86.3674 189.997 86.4209C190.051 86.4745 190.094 86.5381 190.123 86.6082C190.152 86.6782 190.167 86.7533 190.167 86.8291C190.167 86.905 190.152 86.98 190.123 87.0501C190.094 87.1201 190.051 87.1838 189.997 87.2373C189.944 87.2909 189.88 87.3333 189.81 87.3623C189.739 87.3912 189.664 87.406 189.588 87.4058Z" fill="#F2F2F2"/>
<path d="M110.551 68.4905H96.9164C96.7632 68.4905 96.6163 68.4298 96.5079 68.3216C96.3996 68.2135 96.3387 68.0668 96.3387 67.9138C96.3387 67.7609 96.3996 67.6142 96.5079 67.5061C96.6163 67.3979 96.7632 67.3372 96.9164 67.3372H110.551C110.705 67.3372 110.852 67.3979 110.96 67.5061C111.068 67.6142 111.129 67.7609 111.129 67.9138C111.129 68.0668 111.068 68.2135 110.96 68.3216C110.852 68.4298 110.705 68.4905 110.551 68.4905Z" fill="#F2F2F2"/>
<path d="M144.697 155.57H97.0897C96.9365 155.57 96.7896 155.509 96.6812 155.401C96.5729 155.293 96.512 155.146 96.512 154.993C96.512 154.84 96.5729 154.693 96.6812 154.585C96.7896 154.477 96.9365 154.416 97.0897 154.416H144.697C144.85 154.416 144.997 154.477 145.105 154.585C145.214 154.693 145.274 154.84 145.274 154.993C145.274 155.146 145.214 155.293 145.105 155.401C144.997 155.509 144.85 155.57 144.697 155.57Z" fill="#F2F2F2"/>
<path d="M144.466 168.257H96.8586C96.7054 168.257 96.5585 168.196 96.4501 168.088C96.3418 167.979 96.2809 167.833 96.2809 167.68C96.2809 167.527 96.3418 167.38 96.4501 167.272C96.5585 167.164 96.7054 167.103 96.8586 167.103H144.466C144.619 167.103 144.766 167.164 144.874 167.272C144.982 167.38 145.043 167.527 145.043 167.68C145.043 167.833 144.982 167.979 144.874 168.088C144.766 168.196 144.619 168.257 144.466 168.257Z" fill="#F2F2F2"/>
<path d="M144.581 174.6H96.9742C96.8982 174.6 96.823 174.585 96.7527 174.557C96.6825 174.528 96.6187 174.485 96.5649 174.432C96.5111 174.378 96.4684 174.314 96.4393 174.244C96.4102 174.174 96.3952 174.099 96.3952 174.023C96.3952 173.948 96.4102 173.872 96.4393 173.802C96.4684 173.732 96.5111 173.669 96.5649 173.615C96.6187 173.562 96.6825 173.519 96.7527 173.49C96.823 173.461 96.8982 173.447 96.9742 173.447H144.581C144.657 173.447 144.732 173.461 144.803 173.49C144.873 173.519 144.937 173.562 144.99 173.615C145.044 173.669 145.087 173.732 145.116 173.802C145.145 173.872 145.16 173.948 145.16 174.023C145.16 174.099 145.145 174.174 145.116 174.244C145.087 174.314 145.044 174.378 144.99 174.432C144.937 174.485 144.873 174.528 144.803 174.557C144.732 174.585 144.657 174.6 144.581 174.6Z" fill="#F2F2F2"/>
<path d="M164.918 168.372H151.283C151.13 168.372 150.983 168.311 150.875 168.203C150.766 168.095 150.705 167.948 150.705 167.795C150.705 167.642 150.766 167.496 150.875 167.387C150.983 167.279 151.13 167.219 151.283 167.219H164.918C165.071 167.219 165.218 167.279 165.327 167.387C165.435 167.496 165.496 167.642 165.496 167.795C165.496 167.948 165.435 168.095 165.327 168.203C165.218 168.311 165.071 168.372 164.918 168.372Z" fill="#F2F2F2"/>
<path d="M164.918 174.6H151.283C151.13 174.6 150.983 174.539 150.875 174.431C150.766 174.323 150.705 174.176 150.705 174.023C150.705 173.87 150.766 173.724 150.875 173.616C150.983 173.507 151.13 173.447 151.283 173.447H164.918C165.071 173.447 165.218 173.507 165.327 173.616C165.435 173.724 165.496 173.87 165.496 174.023C165.496 174.176 165.435 174.323 165.327 174.431C165.218 174.539 165.071 174.6 164.918 174.6Z" fill="#F2F2F2"/>
<path d="M187.797 168.372H174.162C174.009 168.372 173.862 168.311 173.754 168.203C173.645 168.095 173.584 167.948 173.584 167.795C173.584 167.642 173.645 167.496 173.754 167.387C173.862 167.279 174.009 167.219 174.162 167.219H187.797C187.95 167.219 188.097 167.279 188.206 167.387C188.314 167.496 188.375 167.642 188.375 167.795C188.375 167.948 188.314 168.095 188.206 168.203C188.097 168.311 187.95 168.372 187.797 168.372Z" fill="#F2F2F2"/>
<path d="M196.81 161.913H121.933C121.78 161.913 121.633 161.852 121.525 161.744C121.416 161.636 121.355 161.489 121.355 161.336C121.355 161.183 121.416 161.037 121.525 160.929C121.633 160.82 121.78 160.76 121.933 160.76H196.81C196.963 160.76 197.11 160.82 197.219 160.929C197.327 161.037 197.388 161.183 197.388 161.336C197.388 161.489 197.327 161.636 197.219 161.744C197.11 161.852 196.963 161.913 196.81 161.913Z" fill="#F2F2F2"/>
<path d="M110.609 161.913H96.9742C96.821 161.913 96.674 161.852 96.5657 161.744C96.4573 161.636 96.3965 161.489 96.3965 161.336C96.3965 161.183 96.4573 161.037 96.5657 160.929C96.674 160.82 96.821 160.76 96.9742 160.76H110.609C110.762 160.76 110.909 160.82 111.018 160.929C111.126 161.037 111.187 161.183 111.187 161.336C111.187 161.489 111.126 161.636 111.018 161.744C110.909 161.852 110.762 161.913 110.609 161.913Z" fill="#F2F2F2"/>
<path d="M196.81 181.059H121.933C121.857 181.059 121.782 181.044 121.712 181.015C121.641 180.986 121.578 180.944 121.524 180.89C121.47 180.837 121.427 180.773 121.398 180.703C121.369 180.633 121.354 180.558 121.354 180.482C121.354 180.406 121.369 180.331 121.398 180.261C121.427 180.191 121.47 180.128 121.524 180.074C121.578 180.02 121.641 179.978 121.712 179.949C121.782 179.92 121.857 179.905 121.933 179.906H196.81C196.963 179.906 197.11 179.966 197.219 180.074C197.327 180.183 197.388 180.329 197.388 180.482C197.388 180.635 197.327 180.782 197.219 180.89C197.11 180.998 196.963 181.059 196.81 181.059Z" fill="#F2F2F2"/>
<path d="M110.609 181.059H96.9742C96.8982 181.059 96.823 181.044 96.7527 181.015C96.6825 180.986 96.6187 180.944 96.5649 180.89C96.5111 180.837 96.4684 180.773 96.4393 180.703C96.4102 180.633 96.3952 180.558 96.3952 180.482C96.3952 180.406 96.4102 180.331 96.4393 180.261C96.4684 180.191 96.5111 180.128 96.5649 180.074C96.6187 180.02 96.6825 179.978 96.7527 179.949C96.823 179.92 96.8982 179.905 96.9742 179.906H110.609C110.685 179.905 110.76 179.92 110.831 179.949C110.901 179.978 110.965 180.02 111.019 180.074C111.072 180.128 111.115 180.191 111.144 180.261C111.173 180.331 111.188 180.406 111.188 180.482C111.188 180.558 111.173 180.633 111.144 180.703C111.115 180.773 111.072 180.837 111.019 180.89C110.965 180.944 110.901 180.986 110.831 181.015C110.76 181.044 110.685 181.059 110.609 181.059Z" fill="#F2F2F2"/>
<path d="M133.199 102.746L114.711 120.969L133.199 139.192L137.359 135.04L123.378 121.084L137.475 107.013L133.199 102.746Z" fill="#6C63FF"/>
<path d="M160.469 102.746L178.958 120.969L160.469 139.192L156.31 135.04L170.291 121.084L156.194 107.013L160.469 102.746Z" fill="#6C63FF"/>
<path d="M55.4789 47.6421C56.7544 47.6421 57.7884 46.61 57.7884 45.3369C57.7884 44.0637 56.7544 43.0316 55.4789 43.0316C54.2033 43.0316 53.1693 44.0637 53.1693 45.3369C53.1693 46.61 54.2033 47.6421 55.4789 47.6421Z" fill="#6C63FF"/>
<path d="M61.6377 47.6421C62.9132 47.6421 63.9472 46.61 63.9472 45.3369C63.9472 44.0637 62.9132 43.0316 61.6377 43.0316C60.3621 43.0316 59.3281 44.0637 59.3281 45.3369C59.3281 46.61 60.3621 47.6421 61.6377 47.6421Z" fill="#6C63FF"/>
<path d="M67.7965 47.6421C69.072 47.6421 70.106 46.61 70.106 45.3369C70.106 44.0637 69.072 43.0316 67.7965 43.0316C66.5209 43.0316 65.4869 44.0637 65.4869 45.3369C65.4869 46.61 66.5209 47.6421 67.7965 47.6421Z" fill="#6C63FF"/>
<path opacity="0.1" d="M243.322 49.179H50.3465V49.9474H243.322V49.179Z" fill="black"/>
<path d="M289 155.593C289 171.928 279.271 177.631 267.271 177.631C255.27 177.631 245.541 171.928 245.541 155.593C245.541 139.259 267.271 118.479 267.271 118.479C267.271 118.479 289 139.259 289 155.593Z" fill="#F2F2F2"/>
<path d="M266.479 175.132L266.702 161.462L275.963 144.55L266.737 159.317L266.837 153.171L273.219 140.935L266.863 151.544L267.043 140.489L273.878 130.748L267.071 138.75L267.184 118.479L266.477 145.315L266.535 144.208L259.586 133.59L266.424 146.333L265.776 158.68L265.757 158.352L257.746 147.179L265.733 159.51L265.652 161.054L265.637 161.077L265.644 161.204L264.001 192.529H266.196L266.459 176.349L274.427 164.048L266.479 175.132Z" fill="#3F3D56"/>
</g>
<defs>
<clipPath id="clip0">
<rect width="289" height="219" fill="white"/>
</clipPath>
</defs>
</svg>
