<svg width="337" height="198" viewBox="0 0 337 198" fill="none" xmlns="http://www.w3.org/2000/svg">
<path d="M91 144.182C127.451 144.182 157 111.946 157 72.1819C157 32.4174 127.451 0.181885 91 0.181885C54.5492 0.181885 25 32.4174 25 72.1819C25 111.946 54.5492 144.182 91 144.182Z" fill="#F2F2F2"/>
<path d="M0 17.6364C0 44.1676 15.207 65.6364 34 65.6364L0 17.6364Z" fill="#2F2E41"/>
<path d="M34 65.6364C34 39.1051 50.5488 17.6364 71 17.6364L34 65.6364Z" fill="#6C63FF"/>
<path d="M12 19.8182C12 45.1435 21.8398 65.6364 34 65.6364L12 19.8182Z" fill="#6C63FF"/>
<path d="M34 65.6363C34 31.8693 53.2324 4.54541 77 4.54541L34 65.6363Z" fill="#2F2E41"/>
<path d="M27 65.4834C27 65.4834 31.5687 65.3056 32.9456 64.0665C34.3224 62.8275 39.9733 61.348 40.3149 63.3352C40.6565 65.3223 47.1808 73.2183 42.0227 73.2709C36.8647 73.3235 30.0378 72.2555 28.6636 71.1977C27.2894 70.1398 27 65.4834 27 65.4834Z" fill="#A8A8A8"/>
<path opacity="0.2" d="M42.1159 72.5934C36.9575 72.6449 30.1301 71.599 28.7558 70.5629C27.7091 69.7739 27.2921 66.9426 27.1525 65.6364C27.0559 65.6415 27 65.6437 27 65.6437C27 65.6437 27.2894 70.2043 28.6637 71.2404C30.0381 72.2765 36.8654 73.3224 42.0238 73.2709C43.5128 73.256 44.0271 72.6004 43.9989 71.6293C43.792 72.216 43.2241 72.5824 42.1159 72.5934Z" fill="black"/>
<path d="M62 152.909C94.0325 152.909 120 149.002 120 144.182C120 139.362 94.0325 135.455 62 135.455C29.9675 135.455 4 139.362 4 144.182C4 149.002 29.9675 152.909 62 152.909Z" fill="#3F3D56"/>
<path opacity="0.1" d="M61.5 151.818C88.2858 151.818 110 148.399 110 144.182C110 139.964 88.2858 136.545 61.5 136.545C34.7142 136.545 13 139.964 13 144.182C13 148.399 34.7142 151.818 61.5 151.818Z" fill="black"/>
<path d="M249 197.636C297.601 197.636 337 191.775 337 184.545C337 177.316 297.601 171.455 249 171.455C200.399 171.455 161 177.316 161 184.545C161 191.775 200.399 197.636 249 197.636Z" fill="#3F3D56"/>
<path d="M133 172.846C161.085 180.729 215.071 162.564 221 142" stroke="#2F2E41" stroke-width="2" stroke-miterlimit="10"/>
<path d="M96 88.1548C96 88.1548 136.389 75.9431 138.875 115.292C141.361 154.64 105.631 165.834 133.593 173.636" stroke="#2F2E41" stroke-width="2" stroke-miterlimit="10"/>
<path d="M231.076 151.744L228.62 168.614C228.62 168.614 216.527 175.525 225.03 175.728C233.533 175.931 273.589 175.728 273.589 175.728C273.589 175.728 281.336 175.728 269.055 168.411L266.598 150.727L231.076 151.744Z" fill="#2F2E41"/>
<path opacity="0.1" d="M223.317 175.778C225.248 173.912 228.618 171.968 228.618 171.968L231.074 154.939L266.598 154.976L269.054 171.763C271.918 173.485 273.693 174.805 274.731 175.818C276.308 175.427 278.032 173.975 269.054 168.576L266.598 150.727L231.074 151.753L228.618 168.782C228.618 168.782 218.456 174.644 223.317 175.778Z" fill="black"/>
<path d="M322.41 32.9091H174.59C171.503 32.9091 169 35.6455 169 39.0211V147.888C169 151.264 171.503 154 174.59 154H322.41C325.497 154 328 151.264 328 147.888V39.0211C328 35.6455 325.497 32.9091 322.41 32.9091Z" fill="#2F2E41"/>
<path d="M323 39.4546H175V130H323V39.4546Z" fill="#3F3D56"/>
<path d="M249 38.3636C249.552 38.3636 250 37.8752 250 37.2727C250 36.6702 249.552 36.1818 249 36.1818C248.448 36.1818 248 36.6702 248 37.2727C248 37.8752 248.448 38.3636 249 38.3636Z" fill="#F2F2F2"/>
<path d="M328 137.636V148.021C328 148.806 327.856 149.584 327.575 150.309C327.294 151.034 326.882 151.694 326.363 152.249C325.844 152.804 325.227 153.245 324.549 153.545C323.871 153.845 323.144 154 322.41 154H174.59C173.856 154 173.129 153.845 172.451 153.545C171.773 153.245 171.156 152.804 170.637 152.249C170.118 151.694 169.706 151.034 169.425 150.309C169.144 149.584 169 148.806 169 148.021V137.636H328Z" fill="#2F2E41"/>
<path d="M290 186.775V188.909H189V187.202L189.139 186.775L191.628 179.091H287.935L290 186.775Z" fill="#2F2E41"/>
<path d="M248.5 149.636C250.433 149.636 252 147.927 252 145.818C252 143.709 250.433 142 248.5 142C246.567 142 245 143.709 245 145.818C245 147.927 246.567 149.636 248.5 149.636Z" fill="#F2F2F2"/>
<path opacity="0.1" d="M290 186.727V188.909H189V187.164L189.139 186.727H290Z" fill="black"/>
<path d="M98 54.7273H34V136.545H98V54.7273Z" fill="#2F2E41"/>
<path d="M105 46H27V75.4545H105V46Z" fill="#3F3D56"/>
<path d="M105 80.9091H27V110.364H105V80.9091Z" fill="#3F3D56"/>
<path d="M105 115.818H27V144.182H105V115.818Z" fill="#3F3D56"/>
<path opacity="0.4" d="M89 51.4546H84V56.9091H89V51.4546Z" fill="#6C63FF"/>
<path opacity="0.8" d="M96 51.4546H91V56.9091H96V51.4546Z" fill="#6C63FF"/>
<path d="M103 51.4546H98V56.9091H103V51.4546Z" fill="#6C63FF"/>
<path opacity="0.4" d="M89 85.2727H84V90.7273H89V85.2727Z" fill="#6C63FF"/>
<path opacity="0.8" d="M96 85.2727H91V90.7273H96V85.2727Z" fill="#6C63FF"/>
<path d="M103 85.2727H98V90.7273H103V85.2727Z" fill="#6C63FF"/>
<path opacity="0.4" d="M89 120.182H84V125.636H89V120.182Z" fill="#6C63FF"/>
<path opacity="0.8" d="M96 120.182H91V125.636H96V120.182Z" fill="#6C63FF"/>
<path d="M103 120.182H98V125.636H103V120.182Z" fill="#6C63FF"/>
</svg>
