<svg width="688" height="637" viewBox="0 0 688 637" fill="none" xmlns="http://www.w3.org/2000/svg">
<g clip-path="url(#clip0)">
<rect x="146" y="72" width="396" height="346" rx="8" fill="#F2F2F2"/>
<path d="M146 80C146 75.5817 149.582 72 154 72H534C538.418 72 542 75.5817 542 80V99H146V80Z" fill="#C5CFD6"/>
<path fill-rule="evenodd" clip-rule="evenodd" d="M159 90C161.209 90 163 88.2091 163 86C163 83.7909 161.209 82 159 82C156.791 82 155 83.7909 155 86C155 88.2091 156.791 90 159 90Z" fill="#F2F2F2"/>
<path fill-rule="evenodd" clip-rule="evenodd" d="M171 90C173.209 90 175 88.2091 175 86C175 83.7909 173.209 82 171 82C168.791 82 167 83.7909 167 86C167 88.2091 168.791 90 171 90Z" fill="#F2F2F2"/>
<path fill-rule="evenodd" clip-rule="evenodd" d="M183 90C185.209 90 187 88.2091 187 86C187 83.7909 185.209 82 183 82C180.791 82 179 83.7909 179 86C179 88.2091 180.791 90 183 90Z" fill="#F2F2F2"/>
<rect x="456" y="204" width="70" height="194" rx="8" fill="white"/>
<rect x="474" y="222" width="34" height="26" rx="4" fill="#DDE3E9"/>
<rect x="474" y="256" width="34" height="25" rx="4" fill="#AFB9C5"/>
<rect x="474" y="289" width="34" height="25" rx="4" fill="#DDE3E9"/>
<rect x="474" y="355" width="34" height="25" rx="4" fill="#DDE3E9"/>
<rect x="474" y="322" width="34" height="25" rx="4" fill="#C5CFD6"/>
<rect x="456" y="115" width="70" height="81" rx="8" fill="white"/>
<path fill-rule="evenodd" clip-rule="evenodd" d="M491 162C499.837 162 507 154.837 507 146C507 137.163 499.837 130 491 130C482.163 130 475 137.163 475 146C475 154.837 482.163 162 491 162Z" fill="#DDE3E9"/>
<rect x="466" y="166" width="50" height="6" rx="3" fill="#DDE3E9"/>
<rect x="474" y="176" width="34" height="6" rx="3" fill="#DDE3E9"/>
<rect x="162" y="115" width="286" height="47" rx="4" fill="white"/>
<g clip-path="url(#clip1)">
<rect x="171" y="129.1" width="228" height="7.05" rx="3" fill="#DDE3E9"/>
<rect x="171" y="140.85" width="153.041" height="7.05" rx="3" fill="#DDE3E9"/>
</g>
<path fill-rule="evenodd" clip-rule="evenodd" d="M417.435 145.5C421.301 145.5 424.435 142.366 424.435 138.5C424.435 134.634 421.301 131.5 417.435 131.5C413.569 131.5 410.435 134.634 410.435 138.5C410.435 142.366 413.569 145.5 417.435 145.5Z" fill="#DDE3E9"/>
<path fill-rule="evenodd" clip-rule="evenodd" d="M417.435 141.5C419.092 141.5 420.435 140.157 420.435 138.5C420.435 136.843 419.092 135.5 417.435 135.5C415.778 135.5 414.435 136.843 414.435 138.5C414.435 140.157 415.778 141.5 417.435 141.5Z" fill="#F2F2F2"/>
<rect x="162" y="170" width="286" height="39" rx="4" fill="white"/>
<g clip-path="url(#clip2)">
<rect x="171" y="181.7" width="228" height="5.85" rx="2.925" fill="#DDE3E9"/>
<rect x="171" y="191.45" width="153.041" height="5.85" rx="2.925" fill="#DDE3E9"/>
</g>
<path fill-rule="evenodd" clip-rule="evenodd" d="M417.435 196.5C421.301 196.5 424.435 193.366 424.435 189.5C424.435 185.634 421.301 182.5 417.435 182.5C413.569 182.5 410.435 185.634 410.435 189.5C410.435 193.366 413.569 196.5 417.435 196.5Z" fill="#DDE3E9"/>
<path fill-rule="evenodd" clip-rule="evenodd" d="M417.435 192.5C419.092 192.5 420.435 191.157 420.435 189.5C420.435 187.843 419.092 186.5 417.435 186.5C415.778 186.5 414.435 187.843 414.435 189.5C414.435 191.157 415.778 192.5 417.435 192.5Z" fill="#F2F2F2"/>
<rect x="162" y="217" width="286" height="39" rx="4" fill="white"/>
<g clip-path="url(#clip3)">
<rect x="171" y="228.7" width="228" height="5.85" rx="2.925" fill="#DDE3E9"/>
<rect x="171" y="238.45" width="153.041" height="5.85" rx="2.925" fill="#DDE3E9"/>
</g>
<path fill-rule="evenodd" clip-rule="evenodd" d="M417.435 243.5C421.301 243.5 424.435 240.366 424.435 236.5C424.435 232.634 421.301 229.5 417.435 229.5C413.569 229.5 410.435 232.634 410.435 236.5C410.435 240.366 413.569 243.5 417.435 243.5Z" fill="#DDE3E9"/>
<path fill-rule="evenodd" clip-rule="evenodd" d="M417.435 239.5C419.092 239.5 420.435 238.157 420.435 236.5C420.435 234.843 419.092 233.5 417.435 233.5C415.778 233.5 414.435 234.843 414.435 236.5C414.435 238.157 415.778 239.5 417.435 239.5Z" fill="#AFB9C5"/>
<rect x="162" y="358" width="286" height="39" rx="4" fill="white"/>
<g clip-path="url(#clip4)">
<rect x="171" y="369.7" width="228" height="5.85" rx="2.925" fill="#DDE3E9"/>
<rect x="171" y="379.45" width="153.041" height="5.85" rx="2.925" fill="#DDE3E9"/>
</g>
<path fill-rule="evenodd" clip-rule="evenodd" d="M417.435 384.5C421.301 384.5 424.435 381.366 424.435 377.5C424.435 373.634 421.301 370.5 417.435 370.5C413.569 370.5 410.435 373.634 410.435 377.5C410.435 381.366 413.569 384.5 417.435 384.5Z" fill="#DDE3E9"/>
<path fill-rule="evenodd" clip-rule="evenodd" d="M417.435 380.5C419.092 380.5 420.435 379.157 420.435 377.5C420.435 375.843 419.092 374.5 417.435 374.5C415.778 374.5 414.435 375.843 414.435 377.5C414.435 379.157 415.778 380.5 417.435 380.5Z" fill="#F2F2F2"/>
<rect x="162" y="311" width="286" height="39" rx="4" fill="white"/>
<g clip-path="url(#clip5)">
<rect x="171" y="322.7" width="228" height="5.85" rx="2.925" fill="#DDE3E9"/>
<rect x="171" y="332.45" width="153.041" height="5.85" rx="2.925" fill="#DDE3E9"/>
</g>
<path fill-rule="evenodd" clip-rule="evenodd" d="M417.435 337.5C421.301 337.5 424.435 334.366 424.435 330.5C424.435 326.634 421.301 323.5 417.435 323.5C413.569 323.5 410.435 326.634 410.435 330.5C410.435 334.366 413.569 337.5 417.435 337.5Z" fill="#DDE3E9"/>
<path fill-rule="evenodd" clip-rule="evenodd" d="M417.435 333.5C419.092 333.5 420.435 332.157 420.435 330.5C420.435 328.843 419.092 327.5 417.435 327.5C415.778 327.5 414.435 328.843 414.435 330.5C414.435 332.157 415.778 333.5 417.435 333.5Z" fill="#F2F2F2"/>
<rect x="162" y="264" width="286" height="39" rx="4" fill="white"/>
<g clip-path="url(#clip6)">
<rect x="171" y="275.7" width="228" height="5.85" rx="2.925" fill="#DDE3E9"/>
<rect x="171" y="285.45" width="153.041" height="5.85" rx="2.925" fill="#DDE3E9"/>
</g>
<path fill-rule="evenodd" clip-rule="evenodd" d="M417.435 290.5C421.301 290.5 424.435 287.366 424.435 283.5C424.435 279.634 421.301 276.5 417.435 276.5C413.569 276.5 410.435 279.634 410.435 283.5C410.435 287.366 413.569 290.5 417.435 290.5Z" fill="#DDE3E9"/>
<path fill-rule="evenodd" clip-rule="evenodd" d="M417.435 286.5C419.092 286.5 420.435 285.157 420.435 283.5C420.435 281.843 419.092 280.5 417.435 280.5C415.778 280.5 414.435 281.843 414.435 283.5C414.435 285.157 415.778 286.5 417.435 286.5Z" fill="#F2F2F2"/>
<path fill-rule="evenodd" clip-rule="evenodd" d="M157.666 235.56C165.655 238.955 173.194 240.078 176.469 238.726C184.681 235.335 181.097 204.119 172.783 192.784C164.469 181.448 129.828 180.871 131.531 205.408C132.122 213.924 136.727 220.951 142.831 226.354L139.57 271.398L166.874 267.557L157.666 235.56Z" fill="#B28B67"/>
<path fill-rule="evenodd" clip-rule="evenodd" d="M160.123 180.945C156.233 180.334 150.763 180.711 148.522 181.292C149.382 178.011 149.412 174.486 148.521 171.184C147.655 167.975 145.802 165.399 144.04 162.675C143.228 161.419 142.334 160.183 141.136 159.303C139.916 158.408 138.46 157.908 136.99 157.778C135.485 157.646 133.964 157.889 132.547 158.4C131.92 158.626 131.382 159.003 130.772 159.256C130.147 159.515 129.775 159.154 129.247 158.813C127.975 157.991 126.244 157.741 124.784 157.77C123.146 157.802 121.509 158.279 120.047 159.024C118.625 159.748 117.306 160.786 116.396 162.155C115.99 162.764 115.64 163.442 115.452 164.162C115.374 164.458 115.378 164.626 115.114 164.768C114.869 164.899 114.567 164.944 114.313 165.072C111.857 166.306 109.933 168.603 109.091 171.324C108.6 172.912 108.636 175.58 109.14 178.505C109.643 181.431 113.378 188.723 116.257 191.17C118.826 193.353 122.32 194.542 125.569 194.82C123.814 197.497 122.841 200.672 122.238 203.846C121.583 207.294 121.371 210.81 121.605 214.33C121.827 217.674 122.296 221.177 123.529 224.307C124.681 227.234 126.586 229.5 129.404 230.712C130.695 231.266 132.051 231.629 133.408 231.944C134.745 232.254 136.084 232.55 137.451 232.637C140.039 232.802 142.924 232.306 144.581 230.035C145.178 229.217 145.819 228.204 146.205 227.252C146.343 226.91 146.425 226.688 146.159 226.41C145.84 226.077 145.369 225.854 144.986 225.612C142.801 224.235 141.283 222.199 140.61 219.621C139.928 217.005 140.162 213.472 142.589 211.947C145.586 210.065 149.339 211.214 152.397 212.347C153.007 207.922 154.95 203.742 158.565 201.243C162.564 198.478 167.465 197.531 171.626 195.056C172.711 194.411 173.807 193.698 174.517 192.595C174.814 192.134 175.155 191.542 175.22 190.979C175.306 190.238 174.76 189.705 174.326 189.198C172.021 186.511 164.014 181.555 160.123 180.945Z" fill="#191847"/>
<path fill-rule="evenodd" clip-rule="evenodd" d="M149.346 361.694L234.711 504.12L298.71 624.53H312.494L205.264 361.694L149.346 361.694Z" fill="#997659"/>
<path fill-rule="evenodd" clip-rule="evenodd" d="M293.167 617.558C292.099 617.08 290.827 617.558 290.423 618.656C289.579 620.948 288.353 624.624 288.353 626.657C288.353 629.758 289.389 635.708 289.389 635.708C292.994 635.708 354.184 635.708 354.184 635.708C354.184 635.708 356.71 627.375 351.268 626.711C345.826 626.046 342.227 625.511 342.227 625.511L311.97 612.049C311.456 611.82 310.854 612.061 310.639 612.581L308.645 617.408C308.645 617.408 303.608 619.754 300.458 619.754C298.446 619.754 295.228 618.479 293.167 617.558Z" fill="#E4E4E4"/>
<path fill-rule="evenodd" clip-rule="evenodd" d="M280.935 605.249L307.519 597.223C307.519 597.223 290.049 545.101 264.694 482.506C239.339 419.911 210.234 361.694 210.234 361.694H135.152C135.152 361.694 167.511 435.336 203.761 495.52C240.012 555.704 280.935 605.249 280.935 605.249Z" fill="#128E5A"/>
<path fill-rule="evenodd" clip-rule="evenodd" d="M143.736 361.694C135.679 411.744 120.14 475.688 118.674 477.661C117.696 478.977 82.4997 490.747 13.0849 512.971L16.0626 525.103C98.8395 513.183 142.456 503.936 146.912 497.36C153.595 487.497 186.968 409.576 199.894 361.694H143.736Z" fill="#B28B67"/>
<path fill-rule="evenodd" clip-rule="evenodd" d="M37.4854 502.485L42.7302 522.023C104.643 527.442 142.578 523.527 156.535 510.276C170.493 497.026 186.401 447.498 204.259 361.694H132.663C121.349 431.956 115.024 468.562 113.687 471.511C112.351 474.461 86.95 484.785 37.4854 502.485Z" fill="#1FCF6E"/>
<path fill-rule="evenodd" clip-rule="evenodd" d="M18.3782 510.517C18.6644 509.381 17.9711 508.208 16.8172 508.002C14.4087 507.57 10.5703 507.005 8.56517 507.357C5.5049 507.896 -0.18641 509.947 -0.18641 509.947C0.439572 513.49 11.0652 573.629 11.0652 573.629C11.0652 573.629 19.7268 574.664 19.4375 569.201C19.1483 563.737 19.0516 560.107 19.0516 560.107L27.0804 528.036C27.2173 527.489 26.875 526.937 26.324 526.816L21.2155 525.695C21.2155 525.695 18.026 521.151 17.4791 518.056C17.1302 516.081 17.8276 512.703 18.3782 510.517Z" fill="#E4E4E4"/>
<path fill-rule="evenodd" clip-rule="evenodd" d="M230.109 260.618L193.652 287.756L210.427 301.324L235.438 271.07C249.969 264.786 256.455 260.773 254.894 259.029C253.578 257.559 251.831 257.862 250.222 258.142C248.968 258.359 247.798 258.562 246.981 257.901C245.115 256.391 247.357 249.879 249.75 243.79C252.143 237.7 248.806 238.67 246.973 239.756C241.204 244.958 235.583 251.912 230.109 260.618ZM274.063 285.317L258.053 297.266L261.48 314.499C261.48 314.499 271.577 304.826 280.865 300.777C292.706 295.615 297.324 292.295 302.271 283.79C304.918 279.24 306.496 270.619 303.053 268.368C301.732 267.505 297.69 270.552 293.566 273.662C290.422 276.031 287.232 278.437 285.161 279.175C282.374 280.168 282.189 276.409 282.041 273.405C281.935 271.249 281.848 269.482 280.832 270.139C275.767 270.94 274.063 285.317 274.063 285.317Z" fill="#997659"/>
<path fill-rule="evenodd" clip-rule="evenodd" d="M173.746 285.654C187.557 283.562 205.591 278.052 223.52 262.817L233.664 278.93C221.977 294.284 204.441 308.015 187.686 309.896C174.482 311.377 165.531 296.446 173.746 285.654Z" fill="#2026A2"/>
<path fill-rule="evenodd" clip-rule="evenodd" d="M268.296 287.297C268.296 287.297 219.897 312.553 196.227 310.583C194.219 306.174 192.154 301.762 190.092 297.356C181.262 278.492 172.488 259.748 168.536 241.853L165.395 242.294L137.964 246.154L136.97 246.293C133.509 246.78 116.302 295.097 120.385 324.341C121.788 334.383 119.479 343.542 117.048 353.185C113.015 369.184 108.646 386.516 120.335 411.423C127.297 409.009 139.6 408.881 152.989 408.742C178.047 408.482 206.91 408.183 211.688 392.782C215.254 381.289 215.11 369.279 212.704 356.975C233.576 353.575 258.021 343.108 285.5 323.481C284.883 312.038 268.296 287.297 268.296 287.297Z" fill="#1F28CF"/>
<path fill-rule="evenodd" clip-rule="evenodd" d="M494.915 235.254C488.076 240.604 481.085 243.641 477.571 243.184C468.762 242.037 464.153 210.955 469.253 197.852C474.353 184.749 507.664 175.217 512.363 199.359C513.994 207.738 511.363 215.718 506.864 222.519L521.661 265.183L494.294 268.547L494.915 235.254Z" fill="#B28B67"/>
<path fill-rule="evenodd" clip-rule="evenodd" d="M483.113 181.769C486.647 180.735 496.309 179.136 498.1 178.916C499.245 178.775 500.517 178.884 501.066 177.752C501.516 176.825 501.134 175.397 501.178 174.38C501.228 173.199 501.361 172.022 501.498 170.849C501.886 167.508 502.697 164.276 504.006 161.174C506.461 155.354 510.513 150.534 515.984 147.347C522.025 143.827 529.164 142.314 536.091 142.026C543.504 141.717 550.445 143.319 557.655 144.743C564.525 146.099 571.547 146.103 578.325 144.195C585.153 142.273 589.95 137.862 595.382 133.568C600.942 129.171 607.517 125.935 614.688 125.612C621.383 125.31 627.83 127.292 633.761 130.268C639.311 133.053 644.048 136.642 647.147 142.131C650.482 148.037 651.317 154.865 647.763 160.883C642.612 169.606 631.488 173.065 621.997 174.023C616.508 174.578 611.009 174.242 605.617 173.063C598.427 171.49 591.967 168.121 585.109 165.586C581.891 164.396 578.606 163.498 575.213 162.978C571.921 162.472 568.737 162.446 566.091 164.718C563.292 167.122 560.806 169.451 557.475 171.15C554.279 172.78 550.82 173.898 547.253 174.308C540.313 175.107 533.214 173.791 526.303 173.174C520.667 172.672 514.647 172.221 509.188 174.04C506.909 174.8 503.617 176.194 503.07 178.721C517.586 179.544 525.314 196.386 522.889 209.745C521.58 216.956 509.587 226.67 504.089 223.64C500.606 221.72 502.176 218.445 503.187 216.286C505.123 212.151 505.342 207.119 500.56 204.994C496.435 203.161 493.066 209.132 492.989 209.135C491.923 209.182 482.166 205.153 474.957 198.41C468.8 199.539 467.358 195.574 468.43 192.054C469.501 188.534 478.23 183.198 483.113 181.769Z" fill="#191847"/>
<path fill-rule="evenodd" clip-rule="evenodd" d="M553.997 361.694C551.926 389.909 418.48 472.977 417.701 475.308C417.182 476.862 459.238 573.542 459.238 573.542L447.573 578.066C447.573 578.066 383.066 475.675 386.379 464.764C391.123 449.144 489.919 361.994 489.919 361.994L553.997 361.694Z" fill="#B28B67"/>
<path fill-rule="evenodd" clip-rule="evenodd" d="M456.168 558.986L437.123 565.905C396.963 520.684 381.221 483.373 384.092 464.362C386.962 445.352 487.274 361.763 487.274 361.763L555.363 361.763C553.04 427.105 429.352 475.557 427.697 478.341C426.043 481.126 442.324 508.397 456.168 558.986Z" fill="#2F3676"/>
<path fill-rule="evenodd" clip-rule="evenodd" d="M460.333 570.977C461.173 570.164 462.533 570.179 463.289 571.072C464.867 572.938 467.279 575.974 467.975 577.884C469.038 580.798 470.104 586.743 470.104 586.743C466.717 587.973 409.217 608.859 409.217 608.859C409.217 608.859 403.987 601.891 408.873 599.409C413.759 596.927 416.958 595.196 416.958 595.196L440.776 572.218C441.181 571.828 441.829 571.848 442.21 572.264L445.738 576.119C445.738 576.119 451.275 576.604 454.235 575.529C456.125 574.842 458.711 572.546 460.333 570.977Z" fill="#E4E4E4"/>
<path fill-rule="evenodd" clip-rule="evenodd" d="M538.654 361.694L598.1 504.12L656.527 624.53H642.742L491.927 361.694H538.654Z" fill="#997659"/>
<path fill-rule="evenodd" clip-rule="evenodd" d="M654.466 617.557C655.534 617.08 656.806 617.558 657.21 618.655C658.054 620.947 659.28 624.624 659.28 626.657C659.28 629.758 658.244 635.708 658.244 635.708C654.639 635.708 593.449 635.708 593.449 635.708C593.449 635.708 590.923 627.375 596.365 626.71C601.806 626.046 605.406 625.51 605.406 625.51L635.663 612.049C636.177 611.82 636.779 612.06 636.994 612.581L638.988 617.408C638.988 617.408 644.025 619.754 647.175 619.754C649.187 619.754 652.405 618.478 654.466 617.557Z" fill="#E4E4E4"/>
<path fill-rule="evenodd" clip-rule="evenodd" d="M651.251 599.516L620.621 605.249C596.938 570.5 497.824 428.021 486.957 361.694H555.146C591.436 409.642 628.676 564.193 651.251 599.516Z" fill="#5C63AB"/>
<path fill-rule="evenodd" clip-rule="evenodd" d="M390.105 327.215L433.642 340.245L422.519 358.734L388.671 338.86C372.867 337.927 365.401 336.374 366.271 334.201C367.005 332.37 368.75 332.057 370.358 331.769C371.61 331.545 372.779 331.335 373.321 330.435C374.559 328.377 370.225 323.025 365.894 318.121C361.563 313.218 365.03 312.988 367.124 313.38C374.324 316.296 381.984 320.907 390.105 327.215ZM578.494 332.202L601.292 324.703C622.252 364.438 634.501 386.119 638.04 389.745C640.635 392.404 655.347 398.267 665.172 401.156C669.116 402.316 668.7 405.573 667.725 406.718C661.578 413.944 654.863 412.501 647.553 410.931C645.437 410.477 643.271 410.011 641.054 409.743C635.317 409.047 633.973 412.113 632.703 415.01C631.579 417.575 630.512 420.008 626.506 419.582C626.589 418.797 626.702 417.916 626.824 416.964C627.611 410.814 628.772 401.745 624.823 397.044C622.796 394.631 607.353 373.017 578.494 332.202Z" fill="#B28B67"/>
<path fill-rule="evenodd" clip-rule="evenodd" d="M503.718 248.135L493.651 247.659C474.726 271.089 472.089 322.115 458.587 330.486C445.823 338.4 425.899 334.709 402.096 329.343L397.023 345.771C420.484 365.593 466.936 379.065 483.502 366.079C509.989 345.315 509.035 282.899 503.718 248.135Z" fill="#128E5A"/>
<path fill-rule="evenodd" clip-rule="evenodd" d="M561.868 366.512C561.868 366.512 502.567 373.8 474.626 377.235C470.639 377.725 470.686 371.887 470.907 368.918C473.454 334.644 494.993 295.388 489.151 247.764L513.833 240.733C538.745 271.583 550.989 311.831 561.868 366.512Z" fill="#DDE3E9"/>
<path fill-rule="evenodd" clip-rule="evenodd" d="M505.652 397.679L584.184 388.027C580.647 369.475 574.237 350.185 566.415 331.569C588.127 361.399 605.904 382.612 619.745 395.207L637.593 389.385C616.871 317.926 576.158 268.309 515.456 240.534L515.169 240.569L505.492 241.758C505.492 241.758 485.746 361.204 505.652 397.679Z" fill="#1FCF6E"/>
<path fill-rule="evenodd" clip-rule="evenodd" d="M310.165 260.709C310.164 260.714 310.164 260.72 310.162 260.726C310.164 260.721 310.163 260.7 310.165 260.709Z" fill="#C5CFD6"/>
<path fill-rule="evenodd" clip-rule="evenodd" d="M310.162 260.717C310.163 260.718 310.162 260.721 310.163 260.722C310.161 260.718 310.166 260.701 310.162 260.717Z" fill="#C5CFD6"/>
<path fill-rule="evenodd" clip-rule="evenodd" d="M310.176 260.627C310.174 260.648 310.169 260.669 310.167 260.69C310.168 260.679 310.17 260.671 310.171 260.66C310.133 260.937 310.157 260.757 310.176 260.627Z" fill="#C5CFD6"/>
<path fill-rule="evenodd" clip-rule="evenodd" d="M310.168 260.691C310.167 260.7 310.165 260.711 310.164 260.721C310.149 260.782 310.168 260.691 310.168 260.691Z" fill="#C5CFD6"/>
<path fill-rule="evenodd" clip-rule="evenodd" d="M310.163 260.717C310.163 260.716 310.163 260.716 310.164 260.715C310.163 260.716 310.163 260.716 310.163 260.717Z" fill="#C5CFD6"/>
<path fill-rule="evenodd" clip-rule="evenodd" d="M310.16 260.726C310.157 260.739 310.176 260.674 310.16 260.726V260.726Z" fill="#C5CFD6"/>
<path fill-rule="evenodd" clip-rule="evenodd" d="M310.163 260.718L310.164 260.715C310.163 260.716 310.164 260.717 310.163 260.718Z" fill="#C5CFD6"/>
<rect x="248.392" y="220.676" width="100" height="66" rx="4" transform="rotate(-14 248.392 220.676)" fill="#2B44FF"/>
<path fill-rule="evenodd" clip-rule="evenodd" d="M289.726 230.234L273.113 282.815L329.08 268.861L289.726 230.234Z" fill="black" fill-opacity="0.2"/>
<path fill-rule="evenodd" clip-rule="evenodd" d="M321.625 235.256L305.21 274.812L354.689 262.476L321.625 235.256Z" fill="black" fill-opacity="0.2"/>
<path fill-rule="evenodd" clip-rule="evenodd" d="M332.324 233.063C337.414 231.794 340.512 226.638 339.243 221.547C337.974 216.456 332.818 213.358 327.727 214.627C322.636 215.897 319.538 221.052 320.807 226.143C322.077 231.234 327.233 234.332 332.324 233.063Z" fill="white"/>
</g>
<defs>
<clipPath id="clip0">
<rect width="688" height="637" fill="white"/>
</clipPath>
<clipPath id="clip1">
<rect width="228" height="19" fill="white" transform="translate(171 129.1)"/>
</clipPath>
<clipPath id="clip2">
<rect width="228" height="16" fill="white" transform="translate(171 181.7)"/>
</clipPath>
<clipPath id="clip3">
<rect width="228" height="16" fill="white" transform="translate(171 228.7)"/>
</clipPath>
<clipPath id="clip4">
<rect width="228" height="16" fill="white" transform="translate(171 369.7)"/>
</clipPath>
<clipPath id="clip5">
<rect width="228" height="16" fill="white" transform="translate(171 322.7)"/>
</clipPath>
<clipPath id="clip6">
<rect width="228" height="16" fill="white" transform="translate(171 275.7)"/>
</clipPath>
</defs>
</svg>
